# xmcd
#
# Track frame offsets:
#	150
#	41235
#	70122
#	84830
#	109957
#	137550
#	161500
#
# Disc length: 2549 seconds
#
# Revision: 4
# Processed by: cddbd v1.5PL3 Copyright (c) Steve Scherf et al.
# Submitted via: CDex 1.50Beta5
#
DISCID=5609f307
DTITLE=憂歌団 - 憂歌団 LIVE at KUBOKODO 1981 Disc 3
DYEAR=1900
DGENRE=Rock
TTITLE0=君といつまでも
TTITLE1=WHOO BABY
TTITLE2=ボクサー
TTITLE3=CALL IT STORMY MONDAY
TTITLE4=当れ!宝くじ
TTITLE5=金持ちのオッサン
TTITLE6=FINE and MELLOW
EXTD=
EXTT0=
EXTT1=
EXTT2=
EXTT3=
EXTT4=
EXTT5=
EXTT6=
PLAYORDER=
